<svg xmlns="http://www.w3.org/2000/svg" width="59.241" height="61.884" viewBox="0 0 59.241 61.884"><path d="M77.129,46.477l-5.315-3.069a24.032,24.032,0,0,0,0-8.759l5.315-3.069a1.508,1.508,0,0,0,.686-1.747,31.074,31.074,0,0,0-6.825-11.8,1.5,1.5,0,0,0-1.847-.287l-5.315,3.069a23.546,23.546,0,0,0-7.586-4.379V10.308a1.5,1.5,0,0,0-1.173-1.46,31.365,31.365,0,0,0-13.624,0,1.5,1.5,0,0,0-1.173,1.46v6.138a24.29,24.29,0,0,0-7.586,4.379l-5.3-3.069a1.482,1.482,0,0,0-1.847.287,30.887,30.887,0,0,0-6.825,11.8,1.492,1.492,0,0,0,.686,1.747l5.315,3.069a24.033,24.033,0,0,0,0,8.759L19.4,46.49a1.508,1.508,0,0,0-.686,1.747,31.074,31.074,0,0,0,6.825,11.8,1.5,1.5,0,0,0,1.847.287L32.7,57.257a23.547,23.547,0,0,0,7.586,4.379v6.138a1.5,1.5,0,0,0,1.173,1.46,31.365,31.365,0,0,0,13.624,0,1.5,1.5,0,0,0,1.173-1.46V61.636a24.289,24.289,0,0,0,7.586-4.379l5.315,3.069A1.482,1.482,0,0,0,71,60.039a30.887,30.887,0,0,0,6.825-11.8A1.541,1.541,0,0,0,77.129,46.477ZM48.258,49.01a9.981,9.981,0,1,1,9.981-9.981A9.995,9.995,0,0,1,48.258,49.01Z" transform="translate(-18.644 -8.099)" fill="#8fe4ff"/></svg>