<svg xmlns="http://www.w3.org/2000/svg" xmlns:xlink="http://www.w3.org/1999/xlink" width="906.008" height="1024.923" viewBox="0 0 906.008 1024.923"><defs><filter id="a" x="0" y="0" width="906.008" height="1024.923" filterUnits="userSpaceOnUse"><feOffset dy="16" input="SourceAlpha"/><feGaussianBlur stdDeviation="10" result="b"/><feFlood flood-opacity="0.161"/><feComposite operator="in" in2="b"/><feComposite in="SourceGraphic"/></filter><filter id="c" x="172.037" y="118.612" width="563.96" height="475.739" filterUnits="userSpaceOnUse"><feOffset dy="16" input="SourceAlpha"/><feGaussianBlur stdDeviation="10" result="d"/><feFlood flood-opacity="0.161"/><feComposite operator="in" in2="d"/><feComposite in="SourceGraphic"/></filter></defs><g transform="translate(-507.195 -43.432)"><g transform="matrix(1, 0, 0, 1, 507.2, 43.43)" filter="url(#a)"><path d="M373.806,961.5c-39.476,0-210.88-56.367-307.517-112.16-3.429,0-63.127-40.582-66.289-42.163,0-3.429,53.709,38.158,276.067,97.739,92.9,24.892,130.865,23.387,134.482,22.246,87.055,2.638,141.134-55.4,141.134-55.4L660.849,722.9l63.464-86.813c-70.505,1.3-179.651-27.267-346.827-108.816-.187-.4,46.3,18.344,107.945,37.091,143.352,43.59,368.7,87.182,279.958-109.967C670.531,243.663,384.96,49.14,178.958,49.14,70.259,48.594,85.124,175,90.831,196.8,78.741,165.205-8.551-85.346,370.7,30.28,713.208,134.7,829.309,427,829.309,427s33.927,88.9,5.064,150.778c1.721.2,2.611.464,2.4.818C833.346,582.55,646.9,841.178,595.211,892.866c-61.1,61.1-135.613,72.058-180.742,72.057C389.24,964.923,373.191,961.5,373.806,961.5ZM90.831,196.8c.712,1.86,1.162,2.96,1.242,3.182C91.807,199.933,91.358,198.811,90.831,196.8Z" transform="translate(30 14)" fill="#253c53"/></g><g transform="matrix(1, 0, 0, 1, 507.2, 43.43)" filter="url(#c)"><ellipse cx="236.186" cy="97.53" rx="236.186" ry="97.53" transform="matrix(0.85, 0.53, -0.53, 0.85, 305.4, 132.61)" fill="#4b536d"/></g></g></svg>